<?xml version="1.0" encoding="UTF-8" standalone="no"?>
<!-- Created with Inkscape (http://www.inkscape.org/) -->

<svg
   xmlns:dc="http://purl.org/dc/elements/1.1/"
   xmlns:cc="http://creativecommons.org/ns#"
   xmlns:rdf="http://www.w3.org/1999/02/22-rdf-syntax-ns#"
   xmlns:svg="http://www.w3.org/2000/svg"
   xmlns="http://www.w3.org/2000/svg"
   xmlns:xlink="http://www.w3.org/1999/xlink"
   xmlns:sodipodi="http://sodipodi.sourceforge.net/DTD/sodipodi-0.dtd"
   xmlns:inkscape="http://www.inkscape.org/namespaces/inkscape"
   id="svg2"
   version="1.1"
   inkscape:version="0.48.2 r9819"
   width="1024"
   height="1024"
   sodipodi:docname="Apps.svg">
  <metadata
     id="metadata8">
    <rdf:RDF>
      <cc:Work
         rdf:about="">
        <dc:format>image/svg+xml</dc:format>
        <dc:type
           rdf:resource="http://purl.org/dc/dcmitype/StillImage" />
        <dc:title />
      </cc:Work>
    </rdf:RDF>
  </metadata>
  <defs
     id="defs6" />
  <sodipodi:namedview
     pagecolor="#ffffff"
     bordercolor="#666666"
     borderopacity="1"
     objecttolerance="10"
     gridtolerance="10"
     guidetolerance="10"
     inkscape:pageopacity="0"
     inkscape:pageshadow="2"
     inkscape:window-width="1232"
     inkscape:window-height="756"
     id="namedview4"
     showgrid="false"
     inkscape:zoom="0.4609375"
     inkscape:cx="374.32437"
     inkscape:cy="512"
     inkscape:window-x="0"
     inkscape:window-y="0"
     inkscape:window-maximized="1"
     inkscape:current-layer="layer8" />
  <g
     inkscape:groupmode="layer"
     id="layer3"
     inkscape:label="Dashboard"
     style="display:inline">
    <g
       inkscape:groupmode="layer"
       id="layer5"
       inkscape:label="DRaster"
       style="display:none">
      <image
         style="opacity:0.20895523;display:inline"
         width="1024"
         height="1024"
         xlink:href="file:///Users/Sean/Desktop/HiDPI/keys/AppDashboard.png"
         id="image10"
         x="0"
         y="0" />
    </g>
    <g
       inkscape:groupmode="layer"
       id="layer4"
       inkscape:label="DVector">
      <path
         style="fill:#000000;fill-opacity:1;fill-rule:nonzero;stroke:none;display:inline"
         d="m 512,316.69396 c 25.48229,0 46.1397,-20.65747 46.1397,-46.13984 l 0,-79.09686 c 0,-25.48238 -20.65741,-46.13984 -46.1397,-46.13984 -25.48228,0 -46.1397,20.65746 -46.1397,46.13984 l 0,79.09686 c 0,25.48237 20.65742,46.13984 46.13969,46.13984"
         id="path4083"
         inkscape:connector-curvature="0" />
      <path
         inkscape:connector-curvature="0"
         id="path3026"
         d="m 372.59076,411.59645 c 18.0187,-18.0187 18.01865,-47.23274 -10e-5,-65.25149 l -55.92993,-55.92993 c -18.01876,-18.01876 -47.23279,-18.0188 -65.25149,-10e-5 -18.01869,18.0187 -18.01866,47.23273 10e-5,65.25149 l 55.92993,55.92993 c 18.01875,18.01875 47.23279,18.01879 65.25148,1e-4"
         style="fill:#000000;fill-opacity:1;fill-rule:nonzero;stroke:none;display:inline" />
      <use
         x="0"
         y="0"
         xlink:href="#path3026"
         id="use3030"
         transform="matrix(-1,0,0,1,1024,0)"
         width="1024"
         height="1024"
         style="fill:#000000;fill-opacity:1;display:inline" />
      <path
         inkscape:connector-curvature="0"
         id="path3034"
         d="m 706.31173,531.00569 c 0,25.48229 20.65747,46.1397 46.13984,46.1397 l 79.09686,0 c 25.48238,0 46.13984,-20.65741 46.13984,-46.1397 0,-25.48228 -20.65746,-46.1397 -46.13984,-46.1397 l -79.09686,0 c -25.48237,0 -46.13984,20.65742 -46.13984,46.13969"
         style="fill:#000000;fill-opacity:1;fill-rule:nonzero;stroke:none;display:inline" />
      <use
         x="0"
         y="0"
         xlink:href="#path3034"
         id="use3036"
         transform="translate(-580,0)"
         width="1024"
         height="1024"
         style="fill:#000000;fill-opacity:1;display:inline" />
      <path
         sodipodi:type="arc"
         style="fill:none;stroke:#000000;stroke-width:56.30508423;stroke-linecap:round;stroke-linejoin:miter;stroke-miterlimit:4;stroke-opacity:1;stroke-dasharray:none;stroke-dashoffset:0;display:inline"
         id="path3806"
         sodipodi:cx="531.52545"
         sodipodi:cy="474.03391"
         sodipodi:rx="481.62711"
         sodipodi:ry="445.83051"
         d="m 1013.1526,474.03391 a 481.62711,445.83051 0 1 1 -963.254254,0 481.62711,445.83051 0 1 1 963.254254,0 z"
         transform="matrix(0.92273198,0,0,0.9968199,21.544465,39.473569)" />
      <path
         inkscape:connector-curvature="0"
         id="path3808"
         d="m 512,845.13464 c 25.48229,0 46.1397,-48.90026 46.1397,-109.22198 l 0,-187.23767 c 0,-60.32175 -20.65741,-109.22198 -46.1397,-109.22198 -25.48228,0 -46.1397,48.90023 -46.1397,109.22198 l 0,187.23767 c 0,60.32172 20.65742,109.22198 46.13969,109.22198"
         style="fill:#000000;fill-opacity:1;fill-rule:nonzero;stroke:none;display:inline" />
      <path
         transform="matrix(0.13894815,0,0,0.15010457,438.14552,680.84535)"
         d="m 1013.1526,474.03391 a 481.62711,445.83051 0 1 1 -963.254254,0 481.62711,445.83051 0 1 1 963.254254,0 z"
         sodipodi:ry="445.83051"
         sodipodi:rx="481.62711"
         sodipodi:cy="474.03391"
         sodipodi:cx="531.52545"
         id="path3810"
         style="fill:none;stroke:#000000;stroke-width:396.76309204;stroke-linecap:round;stroke-linejoin:miter;stroke-miterlimit:4;stroke-opacity:1;stroke-dasharray:none;stroke-dashoffset:0;display:inline"
         sodipodi:type="arc" />
    </g>
  </g>
  <g
     inkscape:groupmode="layer"
     id="layer6"
     inkscape:label="LaunchPad"
     style="display:inline">
    <g
       inkscape:groupmode="layer"
       id="layer7"
       inkscape:label="LRaster"
       style="display:none">
      <image
         y="0"
         x="0"
         id="image3871"
         xlink:href="file:///Users/Sean/Desktop/HiDPI/keys/AppLaunchpad.png"
         height="1024"
         width="1024" />
    </g>
    <g
       inkscape:groupmode="layer"
       id="layer8"
       inkscape:label="LVector"
       style="display:inline">
      <path
         transform="matrix(0.92273198,0,0,0.9968199,21.544465,39.473569)"
         d="m 1013.1526,474.03391 a 481.62711,445.83051 0 1 1 -963.254254,0 481.62711,445.83051 0 1 1 963.254254,0 z"
         sodipodi:ry="445.83051"
         sodipodi:rx="481.62711"
         sodipodi:cy="474.03391"
         sodipodi:cx="531.52545"
         id="path3879"
         style="fill:none;stroke:#000000;stroke-width:56.30508423;stroke-linecap:round;stroke-linejoin:miter;stroke-miterlimit:4;stroke-opacity:1;stroke-dasharray:none;stroke-dashoffset:0;display:inline"
         sodipodi:type="arc" />
      <path
         style="fill:#000000;fill-opacity:1;stroke:none"
         d="M 743.1875,278.5 C 608.91844,288.98894 444.18799,346.68266 386.53125,468.71875 l -41.4375,4.625 c -50.7641,26.64571 -96.26373,77.34982 -145.71875,161.0625 l 124.25,-21.46875 -13.8125,36.8125 65.96875,62.90625 36.8125,-10.75 -26.0625,121.1875 C 440.26634,795.20774 500.82859,755.23262 546.0625,680.4375 l 6.90625,-42.96875 C 685.14841,587.75909 739.5633,371.2814 743.1875,278.5 z M 598.21875,380.53125 c 25.41717,0 46.03125,20.58283 46.03125,46 0,25.41717 -20.61408,46.03125 -46.03125,46.03125 -25.41717,0 -46,-20.61408 -46,-46.03125 0,-25.41717 20.58283,-46 46,-46 z"
         id="path3884"
         inkscape:connector-curvature="0" />
    </g>
  </g>
  <g
     inkscape:groupmode="layer"
     id="layer9"
     inkscape:label="Expose"
     style="display:inline">
    <g
       inkscape:groupmode="layer"
       id="layer10"
       inkscape:label="ERaster"
       style="display:none">
      <image
         y="0"
         x="0"
         id="image3953"
         xlink:href="file:///Users/Sean/Desktop/HiDPI/keys/AppExpose.png"
         height="1024"
         width="1024" />
    </g>
    <g
       inkscape:groupmode="layer"
       id="layer11"
       inkscape:label="EVector"
       style="display:inline">
      <rect
         style="fill:none;stroke:#000000;stroke-width:40;stroke-linejoin:round;stroke-miterlimit:4;stroke-opacity:1;stroke-dasharray:none"
         id="rect3956"
         width="917.69482"
         height="791.86432"
         x="53.152588"
         y="116.06784"
         ry="60.745762" />
      <rect
         ry="47.728809"
         y="202.84749"
         x="133.42377"
         height="253.83041"
         width="366.64404"
         id="rect3958"
         style="fill:none;stroke:#000000;stroke-width:32;stroke-linejoin:round;stroke-miterlimit:4;stroke-opacity:1;stroke-dasharray:none" />
      <rect
         style="fill:none;stroke:#000000;stroke-width:32;stroke-linejoin:round;stroke-miterlimit:4;stroke-opacity:1;stroke-dasharray:none"
         id="rect3963"
         width="295.05081"
         height="353.62698"
         x="599.86444"
         y="335.18646"
         ry="47.728809" />
      <rect
         ry="47.728809"
         y="560.8136"
         x="218.03394"
         height="236.47441"
         width="318.91525"
         id="rect3965"
         style="fill:none;stroke:#000000;stroke-width:32;stroke-linejoin:round;stroke-miterlimit:4;stroke-opacity:1;stroke-dasharray:none" />
    </g>
  </g>
</svg>
