<?xml version="1.0" encoding="UTF-8" standalone="no"?>
<!-- Created with Inkscape (http://www.inkscape.org/) -->

<svg
   xmlns:dc="http://purl.org/dc/elements/1.1/"
   xmlns:cc="http://creativecommons.org/ns#"
   xmlns:rdf="http://www.w3.org/1999/02/22-rdf-syntax-ns#"
   xmlns:svg="http://www.w3.org/2000/svg"
   xmlns="http://www.w3.org/2000/svg"
   xmlns:xlink="http://www.w3.org/1999/xlink"
   xmlns:sodipodi="http://sodipodi.sourceforge.net/DTD/sodipodi-0.dtd"
   xmlns:inkscape="http://www.inkscape.org/namespaces/inkscape"
   id="svg2"
   version="1.1"
   inkscape:version="0.48.2 r9819"
   width="170"
   height="170"
   xml:space="preserve"
   sodipodi:docname="KeyGlyphs.svg"
   inkscape:export-filename="../png/DisplayMirror.png"
   inkscape:export-xdpi="67.764709"
   inkscape:export-ydpi="67.764709"><metadata
     id="metadata8"><rdf:RDF><cc:Work
         rdf:about=""><dc:format>image/svg+xml</dc:format><dc:type
           rdf:resource="http://purl.org/dc/dcmitype/StillImage" /><dc:title></dc:title></cc:Work></rdf:RDF></metadata><defs
     id="defs6"><clipPath
       clipPathUnits="userSpaceOnUse"
       id="clipPath16"><path
         d="M 0,206 211,206 211,0 0,0 0,206 z"
         id="path18"
         inkscape:connector-curvature="0" /></clipPath><clipPath
       id="clipPath3854"
       clipPathUnits="userSpaceOnUse"><path
         id="path3856"
         d="M 0,206 211,206 211,0 0,0 0,206 z" /></clipPath><clipPath
       clipPathUnits="userSpaceOnUse"
       id="clipPath20"><path
         d="M 0,206 211,206 211,0 0,0 0,206 z"
         id="path22"
         inkscape:connector-curvature="0" /></clipPath><clipPath
       id="clipPath4057"
       clipPathUnits="userSpaceOnUse"><path
         id="path4059"
         d="M 0,206 211,206 211,0 0,0 0,206 z" /></clipPath><clipPath
       id="clipPath4301"
       clipPathUnits="userSpaceOnUse"><path
         id="path4303"
         d="m 72,661.2552 468,0 0,58.74477 -468,0 0,-58.74477 z" /></clipPath><clipPath
       id="clipPath4441"
       clipPathUnits="userSpaceOnUse"><path
         id="path4443"
         d="M 0,206 211,206 211,0 0,0 0,206 z" /></clipPath><clipPath
       clipPathUnits="userSpaceOnUse"
       id="clipPath16-7"><path
         inkscape:connector-curvature="0"
         d="M 0,16 24,16 24,0 0,0 0,16 z"
         id="path18-9" /></clipPath><clipPath
       clipPathUnits="userSpaceOnUse"
       id="clipPath28"><path
         inkscape:connector-curvature="0"
         d="m 2,13.9844 14,0 L 16,6 2,6 2,13.9844 z"
         id="path30-3" /></clipPath><clipPath
       clipPathUnits="userSpaceOnUse"
       id="clipPath44"><path
         inkscape:connector-curvature="0"
         d="m 13,9 9,0 0,-5 -9,0 0,5 z"
         id="path46" /></clipPath></defs><sodipodi:namedview
     pagecolor="#000000"
     bordercolor="#666666"
     borderopacity="1"
     objecttolerance="10"
     gridtolerance="10"
     guidetolerance="10"
     inkscape:pageopacity="0"
     inkscape:pageshadow="2"
     inkscape:window-width="1232"
     inkscape:window-height="756"
     id="namedview4"
     showgrid="false"
     fit-margin-top="10"
     fit-margin-left="10"
     fit-margin-right="10"
     fit-margin-bottom="10"
     inkscape:zoom="0.99999999"
     inkscape:cx="105.31519"
     inkscape:cy="73.863893"
     inkscape:window-x="0"
     inkscape:window-y="0"
     inkscape:window-maximized="1"
     inkscape:current-layer="layer1" /><g
     inkscape:groupmode="layer"
     id="layer2"
     inkscape:label="Brightness"
     style="opacity:0.8;display:none"><path
       style="fill:#000000;fill-opacity:1;fill-rule:nonzero;stroke:none"
       d="m 85,51.25 c -18.64,0 -33.75,15.11 -33.75,33.75 0,18.64 15.11,33.75 33.75,33.75 18.64,0 33.75,-15.11 33.75,-33.75 C 118.75,66.36 103.64,51.25 85,51.25 z M 85,65 c 11.04625,0 20,8.955 20,20 0,11.045 -8.95375,20 -20,20 C 73.955,105 65,96.045 65,85 65,73.955 73.955,65 85,65 z"
       id="path3865"
       inkscape:connector-curvature="0" /><g
       inkscape:groupmode="layer"
       id="layer5"
       inkscape:label="Brightness Up"
       style="display:inline"><path
         transform="matrix(1.25,0,0,-1.25,-46.875,232.5)"
         style="fill:#000000;fill-opacity:1;fill-rule:nonzero;stroke:none;display:inline"
         d="m 138.026,143.456 9.9,9.9 c 1.953,1.953 1.953,5.118 0.001,7.07 -1.953,1.953 -5.118,1.953 -7.072,0.001 l -9.899,-9.9 c -1.953,-1.953 -1.953,-5.118 0,-7.071 1.952,-1.953 5.118,-1.953 7.07,0"
         id="path3907"
         inkscape:connector-curvature="0" /><path
         transform="matrix(1.25,0,0,-1.25,-46.875,232.5)"
         style="fill:#000000;fill-opacity:1;fill-rule:nonzero;stroke:none;display:inline"
         d="m 72.973,92.544 -9.9,-9.899 c -1.952,-1.953 -1.953,-5.119 0,-7.072 1.952,-1.952 5.118,-1.952 7.072,0.001 l 9.899,9.9 c 1.952,1.952 1.952,5.118 0,7.07 -1.953,1.953 -5.118,1.953 -7.071,0"
         id="path3905"
         inkscape:connector-curvature="0" /><path
         transform="matrix(1.25,0,0,-1.25,-46.875,232.5)"
         style="fill:#000000;fill-opacity:1;fill-rule:nonzero;stroke:none;display:inline"
         d="m 138.026,92.544 c -1.953,1.953 -5.118,1.953 -7.07,0.001 -1.953,-1.953 -1.953,-5.118 0,-7.071 l 9.899,-9.9 c 1.953,-1.953 5.119,-1.953 7.072,0 1.952,1.952 1.952,5.118 -0.001,7.071 l -9.9,9.899 z"
         id="path3903"
         inkscape:connector-curvature="0" /><path
         transform="matrix(1.25,0,0,-1.25,-46.875,232.5)"
         style="fill:#000000;fill-opacity:1;fill-rule:nonzero;stroke:none;display:inline"
         d="m 72.973,143.456 c 1.953,-1.953 5.119,-1.953 7.071,0 1.953,1.953 1.952,5.119 0,7.071 l -9.899,9.9 c -1.954,1.952 -5.119,1.953 -7.072,0 -1.952,-1.953 -1.952,-5.119 0,-7.072 l 9.9,-9.899 z"
         id="path3901"
         inkscape:connector-curvature="0" /><path
         transform="matrix(1.25,0,0,-1.25,-46.875,232.5)"
         style="fill:#000000;fill-opacity:1;fill-rule:nonzero;stroke:none;display:inline"
         d="m 160.5,123 -14,0 c -2.762,0 -5,-2.238 -5,-5 0,-2.762 2.238,-5 5,-5 l 14,0 c 2.762,0 5,2.238 5,5 0,2.762 -2.238,5 -5,5"
         id="path3899"
         inkscape:connector-curvature="0" /><path
         transform="matrix(1.25,0,0,-1.25,-46.875,232.5)"
         style="fill:#000000;fill-opacity:1;fill-rule:nonzero;stroke:none;display:inline"
         d="m 69.5,118 c 0,2.762 -2.239,5 -5,5 l -14,0 c -2.761,0 -5,-2.238 -5,-5 0,-2.761 2.239,-5 5,-5 l 14,0 c 2.761,0 5,2.239 5,5"
         id="path3897"
         inkscape:connector-curvature="0" /><path
         transform="matrix(1.25,0,0,-1.25,-46.875,232.5)"
         style="fill:#000000;fill-opacity:1;fill-rule:nonzero;stroke:none;display:inline"
         d="m 105.5,82 c -2.762,0 -5,-2.238 -5,-5 l 0,-14 c 0,-2.762 2.238,-5 5,-5 2.762,0 5,2.238 5,5 l 0,14 c 0,2.762 -2.238,5 -5,5"
         id="path3895"
         inkscape:connector-curvature="0" /><path
         transform="matrix(1.25,0,0,-1.25,-46.875,232.5)"
         style="fill:#000000;fill-opacity:1;fill-rule:nonzero;stroke:none;display:inline"
         d="m 105.5,154 c 2.762,0 5,2.239 5,5 l 0,14 c 0,2.761 -2.238,5 -5,5 -2.761,0 -5,-2.239 -5,-5 l 0,-14 c 0,-2.761 2.239,-5 5,-5"
         id="path3893"
         inkscape:connector-curvature="0" /></g><g
       inkscape:groupmode="layer"
       id="layer3"
       inkscape:label="Brightness Down"
       style="display:inline"><path
         style="fill:#000000;fill-opacity:1;fill-rule:nonzero;stroke:none;display:inline"
         d="m 125.6575,53.18 1.05694,-1.056939 c 2.44125,-2.44125 2.44125,-6.3975 0.001,-8.8375 -2.44125,-2.44125 -6.3975,-2.44125 -8.84,-0.0013 L 116.82,44.34125 c -2.44125,2.44125 -2.44125,6.3975 0,8.83875 2.44,2.44125 6.3975,2.44125 8.8375,0"
         id="path3881"
         inkscape:connector-curvature="0" /><path
         style="fill:#000000;fill-opacity:1;fill-rule:nonzero;stroke:none;display:inline"
         d="m 44.34125,116.82 -1.056939,1.05569 c -2.44,2.44125 -2.44125,6.39875 0,8.84 2.44,2.44 6.3975,2.44 8.84,-10e-4 L 53.18,125.6575 c 2.44,-2.44 2.44,-6.3975 0,-8.8375 -2.44125,-2.44125 -6.3975,-2.44125 -8.83875,0"
         id="path3879"
         inkscape:connector-curvature="0" /><path
         style="fill:#000000;fill-opacity:1;fill-rule:nonzero;stroke:none;display:inline"
         d="m 125.6575,116.82 c -2.44125,-2.44125 -6.3975,-2.44125 -8.8375,-10e-4 -2.44125,2.44125 -2.44125,6.3975 0,8.83875 l 1.05569,1.05694 c 2.44125,2.44125 6.39875,2.44125 8.84,0 2.44,-2.44 2.44,-6.3975 -10e-4,-8.83875 z"
         id="path3877"
         inkscape:connector-curvature="0" /><path
         style="fill:#000000;fill-opacity:1;fill-rule:nonzero;stroke:none;display:inline"
         d="m 44.34125,53.18 c 2.44125,2.44125 6.39875,2.44125 8.83875,0 2.44125,-2.44125 2.44,-6.39875 0,-8.83875 l -1.055689,-1.057189 c -2.4425,-2.44 -6.39875,-2.44125 -8.84,0 -2.44,2.44125 -2.44,6.39875 0,8.84 z"
         id="path3875"
         inkscape:connector-curvature="0" /><path
         style="fill:#000000;fill-opacity:1;fill-rule:nonzero;stroke:none;display:inline"
         d="m 153.75,78.75 -17.5,0 c -3.4525,0 -6.25,2.7975 -6.25,6.25 0,3.4525 2.7975,6.25 6.25,6.25 l 1.5,0 c 3.4525,0 6.25,-2.7975 6.25,-6.25 0,-3.4525 -2.7975,-6.25 -6.25,-6.25"
         id="path3873"
         inkscape:connector-curvature="0" /><path
         style="fill:#000000;fill-opacity:1;fill-rule:nonzero;stroke:none;display:inline"
         d="m 40,85 c 0,-3.4525 -2.79875,-6.25 -6.25,-6.25 l -1.5,0 C 28.79875,78.75 26,81.5475 26,85 c 0,3.45125 2.79875,6.25 6.25,6.25 l 1.5,0 C 37.20125,91.25 40,88.45125 40,85"
         id="path3871"
         inkscape:connector-curvature="0" /><path
         style="fill:#000000;fill-opacity:1;fill-rule:nonzero;stroke:none;display:inline"
         d="m 85,130 c -3.4525,0 -6.25,2.7975 -6.25,6.25 l 0,1.5 c 0,3.4525 2.7975,6.25 6.25,6.25 3.4525,0 6.25,-2.7975 6.25,-6.25 l 0,-1.5 C 91.25,132.7975 88.4525,130 85,130"
         id="path3869"
         inkscape:connector-curvature="0" /><path
         style="fill:#000000;fill-opacity:1;fill-rule:nonzero;stroke:none;display:inline"
         d="m 85,40 c 3.4525,0 6.25,-2.79875 6.25,-6.25 l 0,-1.5 C 91.25,28.79875 88.4525,26 85,26 c -3.45125,0 -6.25,2.79875 -6.25,6.25 l 0,1.5 c 0,3.45125 2.79875,6.25 6.25,6.25"
         id="path3867"
         inkscape:connector-curvature="0" /></g></g><g
     inkscape:groupmode="layer"
     id="layer6"
     inkscape:label="Volume"
     style="opacity:0.8;display:none"><path
       id="path14"
       style="fill:#000000;fill-opacity:1;fill-rule:nonzero;stroke:none"
       d="m 9.9999991,66.717332 0,36.565298 26.6278489,0 36.530397,36.5653 0,-109.695898 -36.530397,36.5653 -26.6278489,0 z"
       inkscape:connector-curvature="0" /><g
       inkscape:groupmode="layer"
       id="layer7"
       inkscape:label="Volume Up"
       style="display:none"><path
         id="path30"
         style="fill:#000000;fill-opacity:1;fill-rule:nonzero;stroke:none"
         d="m 105.97261,129.59635 c -1.3097,0 -2.58118,-0.68809 -3.26595,-1.91137 -1.00887,-1.80167 -0.36731,-4.08202 1.43436,-5.09088 13.6239,-7.62886 22.0871,-22.03392 22.0871,-37.59412 0,-15.560197 -8.4632,-29.965263 -22.0871,-37.594115 -1.80167,-1.008869 -2.44323,-3.287552 -1.43436,-5.090887 1.00887,-1.80001 3.29088,-2.443226 5.09089,-1.434357 15.9807,8.950189 25.90984,25.854992 25.90984,44.119359 0,18.26437 -9.92914,35.16917 -25.90984,44.11936 -0.5784,0.3241 -1.20665,0.47701 -1.82494,0.47701"
         inkscape:connector-curvature="0" /><path
         id="path34"
         style="fill:#000000;fill-opacity:1;fill-rule:nonzero;stroke:none"
         d="m 120.97818,151.29886 c -1.26483,0 -2.49807,-0.64155 -3.20113,-1.80167 -1.07036,-1.76511 -0.50526,-4.0654 1.25984,-5.13576 20.96522,-12.70478 33.48385,-34.89826 33.48385,-59.362107 0,-24.462186 -12.51863,-46.652337 -33.48218,-59.358779 -1.76511,-1.072028 -2.33021,-3.370656 -1.25984,-5.137425 1.07036,-1.766769 3.37231,-2.330207 5.13576,-1.259841 C 146.13677,33.317595 160,57.899449 160,84.999323 c 0,27.103197 -13.86489,51.685047 -37.08718,65.757707 -0.60499,0.36898 -1.2748,0.54183 -1.93464,0.54183"
         inkscape:connector-curvature="0" /></g><g
       inkscape:groupmode="layer"
       id="layer8"
       inkscape:label="Volume Down"
       style="display:none"><path
         id="path26"
         style="fill:#000000;fill-opacity:1;fill-rule:nonzero;stroke:none"
         d="m 91.432751,108.57064 c -1.462612,0 -2.850431,-0.86427 -3.450435,-2.2953 -0.79945,-1.90472 0.09806,-4.09698 2.002782,-4.89477 6.628291,-2.77896 10.911422,-9.209467 10.911422,-16.381252 0,-7.173447 -4.283131,-13.602292 -10.90976,-16.379593 -1.906382,-0.797788 -2.803894,-2.988382 -2.004444,-4.893102 0.796127,-1.904719 2.986721,-2.803893 4.893102,-2.004443 9.417232,3.945728 15.500362,13.082067 15.500362,23.277138 0,10.19507 -6.08313,19.331412 -15.4987,23.278802 -0.472024,0.19778 -0.962332,0.29252 -1.444329,0.29252"
         inkscape:connector-curvature="0" /></g></g><g
     inkscape:groupmode="layer"
     id="layer9"
     inkscape:label="Kbright"
     style="opacity:0.8;display:none"><path
       style="fill:#000000;fill-opacity:1;fill-rule:nonzero;stroke:none"
       d="m 49.545158,122.98708 70.909222,0 0,-13.16886 -70.909222,0 0,13.16886 z"
       id="path4061"
       inkscape:connector-curvature="0" /><g
       inkscape:groupmode="layer"
       id="layer10"
       inkscape:label="Kbright Original"
       style="display:none"><path
         style="fill:#000000;fill-opacity:1;fill-rule:nonzero;stroke:none"
         d="m 162.66563,100.95862 c -1.18317,-3.732861 -5.1703,-5.799358 -8.90316,-4.615174 l -11.58657,3.676134 c -3.73286,1.18419 -5.79835,5.1703 -4.61518,8.90215 1.1852,3.73286 5.17131,5.79936 8.90316,4.61518 l 11.58758,-3.67614 c 3.73388,-1.18317 5.79937,-5.1703 4.61417,-8.90215"
         id="path4091"
         inkscape:connector-curvature="0" /><path
         style="fill:#000000;fill-opacity:1;fill-rule:nonzero;stroke:none"
         d="m 132.6224,59.691482 c -3.19192,-2.270108 -7.61767,-1.522523 -9.88879,1.669405 l -7.04332,9.906019 c -2.27112,3.191928 -1.52353,7.617676 1.66941,9.887785 3.19193,2.270108 7.61768,1.522522 9.88677,-1.669406 l 7.04534,-9.906019 c 2.26909,-3.191928 1.52151,-7.618689 -1.66941,-9.887784"
         id="path4089"
         inkscape:connector-curvature="0" /><path
         style="fill:#000000;fill-opacity:1;fill-rule:nonzero;stroke:none"
         d="M 27.823637,100.01958 16.23707,96.343446 c -3.733877,-1.184184 -7.7189755,0.882313 -8.9031596,4.615174 -1.184184,3.73185 0.8813004,7.71898 4.6141646,8.90215 l 11.58758,3.67614 c 3.731851,1.18418 7.718975,-0.88232 8.903159,-4.61518 1.184184,-3.73185 -0.882313,-7.71796 -4.615177,-8.90215"
         id="path4087"
         inkscape:connector-curvature="0" /><path
         style="fill:#000000;fill-opacity:1;fill-rule:nonzero;stroke:none"
         d="m 54.310258,71.266906 -7.044325,-9.906019 c -2.271121,-3.191928 -6.697883,-3.939513 -9.888798,-1.669405 -3.191928,2.269095 -3.939514,6.695856 -1.670418,9.887784 l 7.045337,9.906019 c 2.270108,3.191928 6.69687,3.939514 9.887785,1.669406 3.192941,-2.270109 3.940527,-6.695857 1.670419,-9.887785"
         id="path4085"
         inkscape:connector-curvature="0" /><path
         style="fill:#000000;fill-opacity:1;fill-rule:nonzero;stroke:none"
         d="m 84.999769,70.311657 c 3.916215,0 7.090923,-3.174707 7.090923,-7.090922 l 0,-12.155867 c 0,-3.916215 -3.174708,-7.090922 -7.090923,-7.090922 -3.916215,0 -7.090922,3.174707 -7.090922,7.090922 l 0,12.155867 c 0,3.916215 3.174707,7.090922 7.090922,7.090922"
         id="path4083"
         inkscape:connector-curvature="0" /></g><g
       inkscape:groupmode="layer"
       id="layer12"
       inkscape:label="Kbright Up"
       style="display:inline"><path
         inkscape:connector-curvature="0"
         id="path4152"
         d="m 164.66563,100.41307 c -1.18317,-3.732862 -5.1703,-5.799359 -8.90316,-4.615175 l -13.58657,4.221685 c -3.73286,1.18419 -5.79835,5.1703 -4.61518,8.90215 1.1852,3.73286 5.17131,5.79936 8.90316,4.61518 l 13.58758,-4.22169 c 3.73388,-1.18317 5.79937,-5.1703 4.61417,-8.90215"
         style="fill:#000000;fill-opacity:1;fill-rule:nonzero;stroke:none;display:inline"
         sodipodi:nodetypes="ccccccc" /><path
         inkscape:connector-curvature="0"
         id="path4154"
         d="m 135.16795,57.691482 c -3.19192,-2.270108 -7.61767,-1.522523 -9.88879,1.669405 l -9.58887,11.906019 c -2.27112,3.191928 -1.52353,7.617676 1.66941,9.887785 3.19193,2.270108 7.61768,1.522522 9.88677,-1.669406 l 9.59089,-11.906019 c 2.26909,-3.191928 1.52151,-7.618689 -1.66941,-9.887784"
         style="fill:#000000;fill-opacity:1;fill-rule:nonzero;stroke:none;display:inline"
         sodipodi:nodetypes="ccccccc" /><path
         inkscape:connector-curvature="0"
         id="path4156"
         d="M 27.823637,100.01958 14.23707,95.797895 c -3.733877,-1.184184 -7.7189755,0.882313 -8.9031596,4.615175 -1.184184,3.73185 0.8813004,7.71898 4.6141646,8.90215 l 13.58758,4.22169 c 3.731851,1.18418 7.718975,-0.88232 8.903159,-4.61518 1.184184,-3.73185 -0.882313,-7.71796 -4.615177,-8.90215"
         style="fill:#000000;fill-opacity:1;fill-rule:nonzero;stroke:none;display:inline"
         sodipodi:nodetypes="ccccccc" /><path
         inkscape:connector-curvature="0"
         id="path4158"
         d="M 54.310258,71.266906 44.720382,59.360887 c -2.271121,-3.191928 -6.697883,-3.939513 -9.888798,-1.669405 -3.191928,2.269095 -3.939514,6.695856 -1.670418,9.887784 l 9.590888,11.906019 c 2.457151,3.050279 6.69687,3.939514 9.887785,1.669406 3.192941,-2.270109 3.940527,-6.695857 1.670419,-9.887785"
         style="fill:#000000;fill-opacity:1;fill-rule:nonzero;stroke:none;display:inline"
         sodipodi:nodetypes="ccccscc" /><path
         inkscape:connector-curvature="0"
         id="path4160"
         d="m 84.999769,70.311657 c 3.916215,0 7.090923,-3.174707 7.090923,-7.090922 l 0,-14.155867 c 0,-3.916215 -3.174708,-7.090922 -7.090923,-7.090922 -3.916215,0 -7.090922,3.174707 -7.090922,7.090922 l 0,14.155867 c 0,3.916215 3.174707,7.090922 7.090922,7.090922"
         style="fill:#000000;fill-opacity:1;fill-rule:nonzero;stroke:none;display:inline"
         sodipodi:nodetypes="csssssc" /></g><g
       inkscape:groupmode="layer"
       id="layer11"
       inkscape:label="Kbright Down"
       style="display:inline"><path
         id="path4122"
         d="m 84.999769,70.311657 c 3.916215,0 7.090923,-3.174707 7.090923,-7.090922 l 0,-2.155867 c 0,-3.916215 -3.174708,-7.090922 -7.090923,-7.090922 -3.916215,0 -7.090922,3.174707 -7.090922,7.090922 l 0,2.155867 c 0,3.916215 3.174707,7.090922 7.090922,7.090922"
         style="fill:#000000;fill-opacity:1;fill-rule:nonzero;stroke:none"
         inkscape:connector-curvature="0"
         sodipodi:nodetypes="csssssc" /><path
         sodipodi:nodetypes="csssssc"
         inkscape:connector-curvature="0"
         style="fill:#000000;fill-opacity:1;fill-rule:nonzero;stroke:none"
         d="m 117.40856,81.187627 c 3.19754,2.261083 7.6226,1.501945 9.88369,-1.69559 l 1.24472,-1.760235 c 2.26108,-3.197536 1.50194,-7.622605 -1.69559,-9.883689 -3.19755,-2.26109 -7.6226,-1.501946 -9.88369,1.695589 l -1.24472,1.760235 c -2.26108,3.197536 -1.50195,7.622601 1.69559,9.88369"
         id="path4129" /><path
         id="path4131"
         d="m 137.57106,109.11331 c 1.25246,3.71054 5.27575,5.70319 8.98629,4.45072 l 2.04264,-0.68949 c 3.71054,-1.25246 5.70317,-5.27576 4.45071,-8.98628 -1.25247,-3.71055 -5.27576,-5.703183 -8.98629,-4.450716 l -2.04264,0.689486 c -3.71054,1.25246 -5.70318,5.27575 -4.45071,8.98628"
         style="fill:#000000;fill-opacity:1;fill-rule:nonzero;stroke:none"
         inkscape:connector-curvature="0"
         sodipodi:nodetypes="csssssc" /><path
         id="path4133"
         d="m 52.591484,81.187627 c -3.19754,2.261083 -7.6226,1.501945 -9.88369,-1.69559 l -1.24472,-1.760235 c -2.26108,-3.197536 -1.50194,-7.622605 1.69559,-9.883689 3.19755,-2.26109 7.6226,-1.501946 9.88369,1.695589 l 1.24472,1.760235 c 2.26108,3.197536 1.50195,7.622601 -1.69559,9.88369"
         style="fill:#000000;fill-opacity:1;fill-rule:nonzero;stroke:none"
         inkscape:connector-curvature="0"
         sodipodi:nodetypes="csssssc" /><path
         sodipodi:nodetypes="csssssc"
         inkscape:connector-curvature="0"
         style="fill:#000000;fill-opacity:1;fill-rule:nonzero;stroke:none"
         d="m 32.428984,109.11331 c -1.25246,3.71054 -5.27575,5.70319 -8.98629,4.45072 l -2.04264,-0.68949 c -3.71054,-1.25246 -5.70317,-5.27576 -4.45071,-8.98628 1.25247,-3.71055 5.27576,-5.703183 8.98629,-4.450716 l 2.04264,0.689486 c 3.71054,1.25246 5.70318,5.27575 4.45071,8.98628"
         id="path4135" /></g></g><g
     inkscape:groupmode="layer"
     id="layer13"
     inkscape:label="Media"
     style="opacity:0.8;display:none"><g
       inkscape:groupmode="layer"
       id="layer15"
       inkscape:label="Next"
       style="display:none"><text
   xml:space="preserve"
   style="font-size:155.96147156px;font-style:normal;font-variant:normal;font-weight:normal;font-stretch:normal;line-height:125%;letter-spacing:0px;word-spacing:0px;fill:#000000;fill-opacity:1;stroke:none;display:inline;font-family:Latin Modern Roman Slanted;-inkscape-font-specification:Latin Modern Roman Slanted"
   x="-1.2467043"
   y="146.01616"
   id="text4453"
   sodipodi:linespacing="125%"><tspan
     sodipodi:role="line"
     id="tspan4455"
     x="-1.2467043"
     y="146.01616"
     dx="0 0 -28.931444">▶︎▶︎</tspan></text>




</g><g
       inkscape:groupmode="layer"
       id="layer16"
       inkscape:label="Prev"
       style="display:none"><text
   sodipodi:linespacing="125%"
   id="text4461"
   y="146.01616"
   x="-171.2467"
   style="font-size:155.96147156px;font-style:normal;font-variant:normal;font-weight:normal;font-stretch:normal;line-height:125%;letter-spacing:0px;word-spacing:0px;fill:#000000;fill-opacity:1;stroke:none;display:inline;font-family:Latin Modern Roman Slanted;-inkscape-font-specification:Latin Modern Roman Slanted"
   xml:space="preserve"
   transform="scale(-1,1)"><tspan
     dx="0 0 -28.931444"
     y="146.01616"
     x="-171.2467"
     id="tspan4463"
     sodipodi:role="line">▶︎▶︎</tspan></text>




</g><g
       inkscape:groupmode="layer"
       id="layer17"
       inkscape:label="Play"
       style="display:none"><text
   sodipodi:linespacing="125%"
   id="text4468"
   y="143.48555"
   x="6.3466549"
   style="font-size:155.96147156px;font-style:normal;font-variant:normal;font-weight:normal;font-stretch:normal;line-height:125%;letter-spacing:0px;word-spacing:0px;fill:#000000;fill-opacity:1;stroke:none;display:inline;font-family:Latin Modern Roman Slanted;-inkscape-font-specification:Latin Modern Roman Slanted"
   xml:space="preserve"><tspan
     y="143.48555"
     x="6.3466549"
     id="tspan4470"
     sodipodi:role="line"
     dx="0 0">▶︎<tspan
   style="font-size:72px"
   id="tspan4476" /></tspan></text>




<text
   xml:space="preserve"
   style="font-size:89.83878326px;font-style:normal;font-variant:normal;font-weight:normal;font-stretch:normal;line-height:125%;letter-spacing:0px;word-spacing:0px;fill:#000000;fill-opacity:1;stroke:none;display:inline;font-family:Latin Modern Roman Slanted;-inkscape-font-specification:Latin Modern Roman Slanted"
   x="106.79642"
   y="105.8141"
   id="text4478"
   sodipodi:linespacing="125%"
   transform="scale(0.8975055,1.1141993)"><tspan
     sodipodi:role="line"
     id="tspan4480"
     x="106.79642"
     y="105.8141"
     style="font-size:82.94859314px"
     dx="0 8.2925425">❙❙</tspan></text>




</g></g><g
     inkscape:groupmode="layer"
     id="layer14"
     inkscape:label="Eject"
     style="opacity:0.8;display:none"><g
       transform="matrix(1.3580247,0,0,-1.3580247,-60.987655,231.74074)"
       inkscape:label="Eject"
       id="g4435"
       style="fill:#000000;fill-opacity:1"><g
         id="g4437"
         style="fill:#000000;fill-opacity:1"><g
           clip-path="url(#clipPath4441)"
           id="g4439"
           style="fill:#000000;fill-opacity:1"><path
             id="path4445"
             style="fill:#000000;fill-opacity:1;fill-rule:nonzero;stroke:none"
             d="m 107,143 -39,-42 79,0 -40,42 z m -40,-64 81,0 0,15 -81,0 0,-15 z"
             inkscape:connector-curvature="0" /></g></g></g></g><g
     inkscape:groupmode="layer"
     id="layer4"
     inkscape:label="Apps"
     style="opacity:0.8;display:none"><g
       style="display:none"
       inkscape:label="Dashboard"
       id="layer3-0"
       transform="matrix(0.14553108,0,0,0.14553108,10.488089,10.488089)"><g
         style="display:none"
         inkscape:label="DRaster"
         id="layer5-9"
         inkscape:groupmode="layer"><image
           y="0"
           x="0"
           id="image10"
           xlink:href="file:///Users/Sean/Desktop/HiDPI/keys/AppDashboard.png"
           height="1024"
           width="1024"
           style="opacity:0.20895523;display:inline" /></g><g
         inkscape:label="DVector"
         id="layer4-3"
         inkscape:groupmode="layer"
         style="display:inline"><path
           inkscape:connector-curvature="0"
           id="path4083-7"
           d="m 512,316.69396 c 25.48229,0 46.1397,-20.65747 46.1397,-46.13984 l 0,-79.09686 c 0,-25.48238 -20.65741,-46.13984 -46.1397,-46.13984 -25.48228,0 -46.1397,20.65746 -46.1397,46.13984 l 0,79.09686 c 0,25.48237 20.65742,46.13984 46.13969,46.13984"
           style="fill:#000000;fill-opacity:1;fill-rule:nonzero;stroke:none;display:inline" /><path
           style="fill:#000000;fill-opacity:1;fill-rule:nonzero;stroke:none;display:inline"
           d="m 372.59076,411.59645 c 18.0187,-18.0187 18.01865,-47.23274 -10e-5,-65.25149 l -55.92993,-55.92993 c -18.01876,-18.01876 -47.23279,-18.0188 -65.25149,-10e-5 -18.01869,18.0187 -18.01866,47.23273 10e-5,65.25149 l 55.92993,55.92993 c 18.01875,18.01875 47.23279,18.01879 65.25148,1e-4"
           id="path3026"
           inkscape:connector-curvature="0" /><use
           style="fill:#000000;fill-opacity:1;display:inline"
           height="1024"
           width="1024"
           transform="matrix(-1,0,0,1,1024,0)"
           id="use3030"
           xlink:href="#path3026"
           y="0"
           x="0" /><path
           style="fill:#000000;fill-opacity:1;fill-rule:nonzero;stroke:none;display:inline"
           d="m 706.31173,531.00569 c 0,25.48229 20.65747,46.1397 46.13984,46.1397 l 79.09686,0 c 25.48238,0 46.13984,-20.65741 46.13984,-46.1397 0,-25.48228 -20.65746,-46.1397 -46.13984,-46.1397 l -79.09686,0 c -25.48237,0 -46.13984,20.65742 -46.13984,46.13969"
           id="path3034"
           inkscape:connector-curvature="0" /><use
           style="fill:#000000;fill-opacity:1;display:inline"
           height="1024"
           width="1024"
           transform="translate(-580,0)"
           id="use3036"
           xlink:href="#path3034"
           y="0"
           x="0" /><path
           transform="matrix(0.92273198,0,0,0.9968199,21.544465,39.473569)"
           d="m 1013.1526,474.03391 a 481.62711,445.83051 0 1 1 -963.254254,0 481.62711,445.83051 0 1 1 963.254254,0 z"
           sodipodi:ry="445.83051"
           sodipodi:rx="481.62711"
           sodipodi:cy="474.03391"
           sodipodi:cx="531.52545"
           id="path3806"
           style="fill:none;stroke:#000000;stroke-width:64.2304306;stroke-linecap:round;stroke-linejoin:miter;stroke-miterlimit:4;stroke-opacity:1;stroke-dasharray:none;stroke-dashoffset:0;display:inline"
           sodipodi:type="arc" /><path
           style="fill:#000000;fill-opacity:1;fill-rule:nonzero;stroke:none;display:inline"
           d="m 512,845.13464 c 25.48229,0 46.1397,-48.90026 46.1397,-109.22198 l 0,-187.23767 c 0,-60.32175 -20.65741,-109.22198 -46.1397,-109.22198 -25.48228,0 -46.1397,48.90023 -46.1397,109.22198 l 0,187.23767 c 0,60.32172 20.65742,109.22198 46.13969,109.22198"
           id="path3808"
           inkscape:connector-curvature="0" /><path
           sodipodi:type="arc"
           style="fill:none;stroke:#000000;stroke-width:452.61035156;stroke-linecap:round;stroke-linejoin:miter;stroke-miterlimit:4;stroke-opacity:1;stroke-dasharray:none;stroke-dashoffset:0;display:inline"
           id="path3810"
           sodipodi:cx="531.52545"
           sodipodi:cy="474.03391"
           sodipodi:rx="481.62711"
           sodipodi:ry="445.83051"
           d="m 1013.1526,474.03391 a 481.62711,445.83051 0 1 1 -963.254254,0 481.62711,445.83051 0 1 1 963.254254,0 z"
           transform="matrix(0.13894815,0,0,0.15010457,438.14552,680.84535)" /></g></g><g
       style="display:none"
       inkscape:label="LaunchPad"
       id="layer6-5"
       transform="matrix(0.16601562,0,0,0.16601562,2.56e-6,2.56e-6)"><g
         style="display:none"
         inkscape:label="LRaster"
         id="layer7-7"
         inkscape:groupmode="layer"><image
           width="1024"
           height="1024"
           xlink:href="file:///Users/Sean/Desktop/HiDPI/keys/AppLaunchpad.png"
           id="image3871"
           x="0"
           y="0" /></g><g
         style="display:inline"
         inkscape:label="LVector"
         id="layer8-2"
         inkscape:groupmode="layer"><path
           sodipodi:type="arc"
           style="fill:none;stroke:#000000;stroke-width:56.30508423;stroke-linecap:round;stroke-linejoin:miter;stroke-miterlimit:4;stroke-opacity:1;stroke-dasharray:none;stroke-dashoffset:0;display:inline"
           id="path3879-9"
           sodipodi:cx="531.52545"
           sodipodi:cy="474.03391"
           sodipodi:rx="481.62711"
           sodipodi:ry="445.83051"
           d="m 1013.1526,474.03391 a 481.62711,445.83051 0 1 1 -963.254254,0 481.62711,445.83051 0 1 1 963.254254,0 z"
           transform="matrix(0.92273198,0,0,0.9968199,21.544465,39.473569)" /><path
           inkscape:connector-curvature="0"
           id="path3884"
           d="M 743.1875,278.5 C 608.91844,288.98894 444.18799,346.68266 386.53125,468.71875 l -41.4375,4.625 c -50.7641,26.64571 -96.26373,77.34982 -145.71875,161.0625 l 124.25,-21.46875 -13.8125,36.8125 65.96875,62.90625 36.8125,-10.75 -26.0625,121.1875 C 440.26634,795.20774 500.82859,755.23262 546.0625,680.4375 l 6.90625,-42.96875 C 685.14841,587.75909 739.5633,371.2814 743.1875,278.5 z M 598.21875,380.53125 c 25.41717,0 46.03125,20.58283 46.03125,46 0,25.41717 -20.61408,46.03125 -46.03125,46.03125 -25.41717,0 -46,-20.61408 -46,-46.03125 0,-25.41717 20.58283,-46 46,-46 z"
           style="fill:#000000;fill-opacity:1;stroke:none" /></g></g><g
       style="display:none"
       inkscape:label="Expose"
       id="layer9-7"
       transform="matrix(0.16601562,0,0,0.16601562,2.56e-6,2.56e-6)"><g
         style="display:none"
         inkscape:label="ERaster"
         id="layer10-5"
         inkscape:groupmode="layer"><image
           width="1024"
           height="1024"
           xlink:href="file:///Users/Sean/Desktop/HiDPI/keys/AppExpose.png"
           id="image3953"
           x="0"
           y="0" /></g><g
         style="display:inline"
         inkscape:label="EVector"
         id="layer11-6"
         inkscape:groupmode="layer"><rect
           ry="60.745762"
           y="116.06784"
           x="53.152588"
           height="791.86432"
           width="917.69482"
           id="rect3956"
           style="fill:none;stroke:#000000;stroke-width:40;stroke-linejoin:round;stroke-miterlimit:4;stroke-opacity:1;stroke-dasharray:none" /><rect
           style="fill:none;stroke:#000000;stroke-width:32;stroke-linejoin:round;stroke-miterlimit:4;stroke-opacity:1;stroke-dasharray:none"
           id="rect3958"
           width="366.64404"
           height="253.83041"
           x="133.42377"
           y="202.84749"
           ry="47.728809" /><rect
           ry="47.728809"
           y="335.18646"
           x="599.86444"
           height="353.62698"
           width="295.05081"
           id="rect3963"
           style="fill:none;stroke:#000000;stroke-width:32;stroke-linejoin:round;stroke-miterlimit:4;stroke-opacity:1;stroke-dasharray:none" /><rect
           style="fill:none;stroke:#000000;stroke-width:32;stroke-linejoin:round;stroke-miterlimit:4;stroke-opacity:1;stroke-dasharray:none"
           id="rect3965"
           width="318.91525"
           height="236.47441"
           x="218.03394"
           y="560.8136"
           ry="47.728809" /></g></g></g><g
     inkscape:groupmode="layer"
     id="layer1"
     inkscape:label="Display"><g
       id="g20"
       transform="matrix(5.875,0,0,-6.25,14.5,35)"
       style="opacity:0.8;fill:#000000;fill-opacity:1"><path
         inkscape:connector-curvature="0"
         d="m 0,0 0,-12 10,0 0,1 -9,0 0,10 16,0 0,-3 1,0 0,4 -18,0 z m 5.78,-14 -0.78,0 0,-1 5,0 0,2.5 -3.031,0 C 6.834,-13.543 6.271,-13.896 5.78,-14"
         style="fill:#000000;fill-opacity:1;fill-rule:nonzero;stroke:none"
         id="path22-8" /></g><g
       style="opacity:0.8;fill:#000000;fill-opacity:1"
       id="g26"
       transform="matrix(5.875,0,0,-6.25,14.5,135)" /><path
       inkscape:connector-curvature="0"
       d="m 73.25,60 35.25,0 0,-12.4 -82.25,0 0,49.9 47,0 0,-37.5 z"
       style="opacity:0.8;fill:#000000;fill-opacity:1;fill-rule:nonzero;stroke:none"
       id="path38" /><path
       id="path52"
       style="opacity:0.8;fill:#000000;fill-opacity:1;fill-rule:nonzero;stroke:none"
       d="m 143.75,110 -52.875,0 0,-31.25 52.875,0 0,31.25 z"
       inkscape:connector-curvature="0" /><path
       inkscape:connector-curvature="0"
       d="m 149.625,116.25 -64.625,0 0,-43.75 64.625,0 0,43.75 z m -70.5,6.25 76.375,0 0,-56.25 -76.375,0 0,56.25 z"
       style="opacity:0.8;fill:#000000;fill-opacity:1;fill-rule:nonzero;stroke:none"
       id="path54" /><g
       id="g56"
       transform="matrix(5.875,0,0,-6.25,125.57451,125.625)"
       style="opacity:0.8;fill:#000000;fill-opacity:1"><path
         inkscape:connector-curvature="0"
         d="m 0,0 -2.813,0 c -0.151,-0.408 -0.39,-0.579 -0.606,-0.643 l -0.487,0 0,-0.857 5,0 0,0.857 -0.488,0 C 0.391,-0.579 0.151,-0.408 0,0"
         style="fill:#000000;fill-opacity:1;fill-rule:nonzero;stroke:none"
         id="path58" /></g></g></svg>